<svg xmlns="http://www.w3.org/2000/svg" width="700" height="550" viewBox="0 0 700 550">
    <defs>
        <style>
            .cls-1 {
                fill: lightgray;
            }

            .cls-1,
            .cls-2,
            .cls-3,
            .cls-4 {
                stroke: black;
                stroke-miterlimit: 10;
                stroke-width: 7px;
            }

            .cls-2 {
                fill: #333;
            }

            .cls-3 {
                fill: #333;
            }

            .cls-4 {
                fill: #333;
            }
        </style>
    </defs>
    <g id="Ebene_5" data-name="Ebene 5">
        <circle class="cls-1" cx="358" cy="250.5" r="243" />
        <circle class="cls-1" cx="358" cy="250.5" r="243" />
    </g>
    <g id="Ebene_11" data-name="Ebene 11">
        <path class="cls-2"
            d="M358,228C165.53,228,9.5,267.62,9.5,316.5S165.53,405,358,405s348.5-39.62,348.5-88.5S550.47,228,358,228Zm0,153.6c-141.59,0-256.37-29.14-256.37-65.1S216.41,251.4,358,251.4s256.37,29.14,256.37,65.1S499.59,381.6,358,381.6Z" />
    </g>
    <g id="Ebene_13" data-name="Ebene 13">
        <path class="cls-1"
            d="M127.42,327.41A242.7,242.7,0,0,1,115,250.5c0-134.21,108.79-243,243-243s243,108.79,243,243A242.4,242.4,0,0,1,584.77,338" />
    </g>
    <g id="Ebene_9" data-name="Ebene 9">
        <path class="cls-3"
            d="M358,163C165.53,163,9.5,202.62,9.5,251.5S165.53,340,358,340s348.5-39.62,348.5-88.5S550.47,163,358,163Zm0,153.6c-141.59,0-256.37-29.14-256.37-65.1S216.41,186.4,358,186.4s256.37,29.14,256.37,65.1S499.59,316.6,358,316.6Z" />
    </g>
    <g id="Ebene_7" data-name="Ebene 7">
        <path class="cls-1" d="M115,250.5c0-134.21,108.79-243,243-243s243,108.79,243,243" />
    </g>
    <g id="Ebene_10" data-name="Ebene 10">
        <path class="cls-4"
            d="M358,98C165.53,98,9.5,137.62,9.5,186.5S165.53,275,358,275s348.5-39.62,348.5-88.5S550.47,98,358,98Zm0,153.6c-141.59,0-256.37-29.14-256.37-65.1S216.41,121.4,358,121.4s256.37,29.14,256.37,65.1S499.59,251.6,358,251.6Z" />
    </g>
</svg>